<svg xmlns="http://www.w3.org/2000/svg" width="480pt" height="290pt" viewBox="0 0 480 290" version="1.1" xmlns:xlink="http://www.w3.org/1999/xlink">
  <g id="surface2" transform="matrix(1.0347328409691487,0,0,1.0347328409691487,25.19159862026811,-6.390078188544663)" data-tpl_matrix="1,0,0,1,-0.5,-0.5">
    <path style="stroke:none;fill-rule:evenodd;fill:rgb(6.274510%,44.705882%,72.941176%);fill-opacity:1" d="M 150.800781 100.398438 C 152.667969 102.300781 154.515625 104.484375 156.351562 106.949219 C 157.285156 108.214844 158.199219 109.535156 159.101562 110.898438 C 159.632812 109.800781 160.167969 108.714844 160.699219 107.648438 C 161.234375 106.550781 161.765625 105.484375 162.300781 104.449219 C 161.964844 104.082031 161.617188 103.714844 161.250000 103.351562 C 159.183594 101.285156 156.765625 99.398438 154.000000 97.699219 C 152.566406 96.867188 151.035156 96.167969 149.398438 95.601562 C 147.734375 95.000000 145.984375 94.632812 144.148438 94.500000 C 144.015625 94.500000 143.882812 94.500000 143.750000 94.500000 C 146.082031 96.000000 148.433594 97.964844 150.800781 100.398438 "/>
    <path style="stroke:none;fill-rule:evenodd;fill:rgb(6.274510%,44.705882%,72.941176%);fill-opacity:1" d="M 215.750000 79.648438 C 219.214844 81.949219 222.714844 84.949219 226.250000 88.648438 C 228.816406 91.382812 231.398438 94.464844 234.000000 97.898438 C 235.898438 100.433594 237.765625 103.117188 239.601562 105.949219 C 239.964844 105.214844 240.351562 104.484375 240.750000 103.750000 C 242.117188 101.117188 243.500000 98.582031 244.898438 96.148438 C 243.566406 94.617188 242.148438 93.101562 240.648438 91.601562 C 237.750000 88.601562 234.332031 85.800781 230.398438 83.199219 C 228.398438 81.933594 226.199219 80.832031 223.800781 79.898438 C 223.199219 79.667969 222.601562 79.449219 222.000000 79.250000 C 221.367188 79.082031 220.714844 78.917969 220.050781 78.750000 C 218.750000 78.449219 217.417969 78.250000 216.050781 78.148438 L 215.000000 78.101562 C 214.632812 78.101562 214.250000 78.101562 213.851562 78.101562 L 213.250000 78.101562 L 213.250000 78.148438 C 214.082031 78.617188 214.917969 79.117188 215.750000 79.648438 "/>
    <path style="stroke:none;fill-rule:evenodd;fill:rgb(15.294118%,13.725490%,38.039216%);fill-opacity:1" d="M 115.898438 119.351562 L 115.898438 126.398438 L 119.449219 126.398438 L 119.449219 113.550781 C 119.183594 113.917969 118.917969 114.300781 118.648438 114.699219 C 117.714844 116.132812 116.800781 117.683594 115.898438 119.351562 "/>
    <path style="stroke:none;fill-rule:evenodd;fill:rgb(15.294118%,13.725490%,38.039216%);fill-opacity:1" d="M 128.000000 105.398438 C 127.867188 105.464844 127.750000 105.515625 127.648438 105.550781 C 127.582031 105.582031 127.515625 105.601562 127.449219 105.601562 L 126.898438 105.898438 C 126.101562 106.367188 125.398438 106.867188 124.800781 107.398438 L 124.699219 107.500000 C 124.667969 107.535156 124.632812 107.566406 124.601562 107.601562 L 124.601562 126.398438 L 128.148438 126.398438 L 128.148438 105.351562 L 128.101562 105.351562 C 128.066406 105.382812 128.035156 105.398438 128.000000 105.398438 "/>
    <path style="stroke:none;fill-rule:evenodd;fill:rgb(15.294118%,13.725490%,38.039216%);fill-opacity:1" d="M 133.250000 106.000000 L 133.250000 126.398438 L 136.800781 126.398438 L 136.800781 108.500000 C 136.101562 107.898438 135.417969 107.367188 134.750000 106.898438 C 134.250000 106.566406 133.750000 106.265625 133.250000 106.000000 "/>
    <path style="stroke:none;fill-rule:evenodd;fill:rgb(15.294118%,13.725490%,38.039216%);fill-opacity:1" d="M 141.949219 114.351562 L 141.949219 126.351562 L 145.500000 126.351562 L 145.500000 119.750000 C 144.765625 118.515625 144.015625 117.332031 143.250000 116.199219 C 142.816406 115.566406 142.382812 114.949219 141.949219 114.351562 "/>
    <path style="stroke:none;fill-rule:evenodd;fill:rgb(15.294118%,13.725490%,38.039216%);fill-opacity:1" d="M 176.050781 113.851562 L 176.050781 126.398438 L 181.449219 126.398438 L 181.449219 105.300781 C 180.984375 106.000000 180.484375 106.734375 179.949219 107.500000 C 178.648438 109.464844 177.351562 111.582031 176.050781 113.851562 "/>
    <path style="stroke:none;fill-rule:evenodd;fill:rgb(15.294118%,13.725490%,38.039216%);fill-opacity:1" d="M 192.648438 93.800781 C 191.582031 94.464844 190.484375 95.285156 189.351562 96.250000 L 189.351562 126.398438 L 194.750000 126.398438 L 194.750000 92.750000 C 194.617188 92.816406 194.464844 92.882812 194.300781 92.949219 C 193.800781 93.183594 193.250000 93.464844 192.648438 93.800781 "/>
    <path style="stroke:none;fill-rule:evenodd;fill:rgb(15.294118%,13.725490%,38.039216%);fill-opacity:1" d="M 202.699219 93.800781 L 202.699219 126.398438 L 208.101562 126.398438 L 208.101562 97.898438 C 207.066406 96.898438 206.035156 96.035156 205.000000 95.300781 C 204.234375 94.699219 203.464844 94.199219 202.699219 93.800781 "/>
    <path style="stroke:none;fill-rule:evenodd;fill:rgb(15.294118%,13.725490%,38.039216%);fill-opacity:1" d="M 216.000000 107.000000 L 216.000000 126.351562 L 221.398438 126.351562 L 221.398438 115.199219 C 220.234375 113.234375 219.035156 111.351562 217.800781 109.550781 C 217.199219 108.648438 216.601562 107.800781 216.000000 107.000000 "/>
    <path style="stroke:none;fill-rule:evenodd;fill:rgb(15.294118%,13.725490%,38.039216%);fill-opacity:1" d="M 268.199219 103.648438 L 268.199219 126.398438 L 277.050781 126.398438 L 277.050781 91.898438 C 274.417969 95.000000 271.750000 98.500000 269.050781 102.398438 C 268.785156 102.800781 268.500000 103.214844 268.199219 103.648438 "/>
    <path style="stroke:none;fill-rule:evenodd;fill:rgb(15.294118%,13.725490%,38.039216%);fill-opacity:1" d="M 292.851562 77.550781 C 291.851562 78.183594 290.898438 78.832031 290.000000 79.500000 L 290.000000 126.398438 L 298.851562 126.398438 L 298.851562 74.750000 C 298.015625 75.015625 297.167969 75.351562 296.300781 75.750000 C 295.066406 76.285156 293.917969 76.882812 292.851562 77.550781 "/>
    <path style="stroke:none;fill-rule:evenodd;fill:rgb(15.294118%,13.725490%,38.039216%);fill-opacity:1" d="M 313.148438 76.000000 C 312.917969 75.933594 312.683594 75.851562 312.449219 75.750000 C 312.214844 75.617188 311.984375 75.515625 311.750000 75.449219 L 311.750000 126.351562 L 320.601562 126.351562 L 320.601562 80.300781 C 320.566406 80.265625 320.535156 80.250000 320.500000 80.250000 C 317.898438 78.382812 315.449219 76.964844 313.148438 76.000000 "/>
    <path style="stroke:none;fill-rule:evenodd;fill:rgb(15.294118%,13.725490%,38.039216%);fill-opacity:1" d="M 333.500000 92.550781 L 333.500000 126.398438 L 342.351562 126.398438 L 342.351562 104.250000 C 339.714844 100.382812 337.082031 96.867188 334.449219 93.699219 C 334.148438 93.300781 333.832031 92.917969 333.500000 92.550781 "/>
    <path style="stroke:none;fill-rule:evenodd;fill:rgb(15.294118%,13.725490%,38.039216%);fill-opacity:1" d="M 407.250000 173.699219 C 401.382812 157.398438 395.449219 143.582031 389.449219 132.250000 C 383.449219 120.917969 380.214844 115.000000 379.750000 114.500000 C 376.316406 108.500000 372.433594 102.332031 368.101562 96.000000 C 363.765625 89.667969 358.832031 83.433594 353.300781 77.300781 C 347.800781 71.101562 341.332031 65.500000 333.898438 60.500000 C 330.132812 58.035156 326.050781 55.984375 321.648438 54.351562 C 317.183594 52.683594 312.500000 51.699219 307.601562 51.398438 L 305.601562 51.351562 L 304.601562 51.351562 L 303.898438 51.398438 L 302.500000 51.449219 L 302.300781 51.449219 C 302.265625 51.449219 302.132812 51.464844 301.898438 51.500000 L 301.750000 51.500000 L 301.300781 51.550781 L 300.351562 51.648438 C 297.851562 51.984375 295.449219 52.515625 293.148438 53.250000 C 290.882812 54.015625 288.750000 54.933594 286.750000 56.000000 C 284.750000 57.000000 282.867188 58.117188 281.101562 59.351562 C 277.601562 61.785156 274.484375 64.367188 271.750000 67.101562 C 268.949219 69.800781 266.433594 72.535156 264.199219 75.300781 C 259.699219 80.867188 255.867188 86.250000 252.699219 91.449219 C 249.500000 96.617188 246.785156 101.367188 244.550781 105.699219 C 242.785156 109.066406 241.285156 112.082031 240.050781 114.750000 C 238.984375 112.917969 237.785156 110.949219 236.449219 108.851562 C 234.750000 106.214844 232.800781 103.417969 230.601562 100.449219 C 228.433594 97.515625 225.964844 94.566406 223.199219 91.601562 C 220.433594 88.601562 217.167969 85.800781 213.398438 83.199219 C 211.535156 81.933594 209.464844 80.832031 207.199219 79.898438 C 206.601562 79.667969 206.015625 79.449219 205.449219 79.250000 C 204.851562 79.082031 204.234375 78.917969 203.601562 78.750000 C 202.367188 78.449219 201.101562 78.250000 199.800781 78.148438 L 198.800781 78.101562 C 198.464844 78.101562 198.117188 78.101562 197.750000 78.101562 L 197.148438 78.101562 L 196.800781 78.148438 L 195.851562 78.250000 C 194.515625 78.382812 193.234375 78.648438 192.000000 79.050781 C 190.800781 79.449219 189.648438 79.917969 188.550781 80.449219 C 187.449219 81.015625 186.417969 81.617188 185.449219 82.250000 C 181.617188 84.949219 178.449219 87.917969 175.949219 91.148438 C 173.417969 94.351562 171.214844 97.500000 169.351562 100.601562 C 167.515625 103.734375 165.898438 106.699219 164.500000 109.500000 C 162.535156 113.566406 160.949219 117.101562 159.750000 120.101562 C 158.917969 118.667969 157.984375 117.082031 156.949219 115.351562 C 155.785156 113.484375 154.449219 111.535156 152.949219 109.500000 C 151.449219 107.433594 149.714844 105.382812 147.750000 103.351562 C 145.816406 101.285156 143.515625 99.398438 140.851562 97.699219 C 139.550781 96.867188 138.117188 96.148438 136.550781 95.550781 C 134.949219 94.984375 133.285156 94.632812 131.550781 94.500000 C 130.714844 94.433594 129.832031 94.449219 128.898438 94.550781 L 128.601562 94.550781 L 128.351562 94.601562 L 128.050781 94.648438 L 127.898438 94.648438 C 127.800781 94.683594 127.750000 94.699219 127.750000 94.699219 L 127.699219 94.699219 L 126.398438 95.000000 C 126.199219 95.035156 126.000000 95.101562 125.800781 95.199219 L 125.148438 95.398438 L 124.550781 95.601562 C 124.351562 95.699219 124.167969 95.785156 124.000000 95.851562 C 123.601562 96.050781 123.214844 96.234375 122.851562 96.398438 L 121.800781 97.000000 C 120.433594 97.898438 119.214844 98.867188 118.148438 99.898438 C 117.050781 100.898438 116.050781 101.949219 115.148438 103.050781 C 113.417969 105.285156 111.917969 107.484375 110.648438 109.648438 C 109.382812 111.816406 108.300781 113.882812 107.398438 115.851562 C 105.601562 119.785156 104.300781 122.964844 103.500000 125.398438 C 103.367188 125.765625 103.250000 126.082031 103.148438 126.351562 L 107.851562 126.351562 C 108.714844 124.148438 110.015625 121.367188 111.750000 118.000000 C 112.714844 116.199219 113.832031 114.316406 115.101562 112.351562 C 116.332031 110.417969 117.765625 108.535156 119.398438 106.699219 C 120.199219 105.800781 121.066406 104.949219 122.000000 104.148438 C 122.898438 103.382812 123.851562 102.714844 124.851562 102.148438 L 125.601562 101.750000 C 125.832031 101.648438 126.082031 101.550781 126.351562 101.449219 C 126.484375 101.382812 126.617188 101.332031 126.750000 101.300781 L 127.101562 101.199219 L 127.500000 101.050781 C 127.632812 101.015625 127.750000 101.000000 127.851562 101.000000 C 128.117188 100.933594 128.382812 100.882812 128.648438 100.851562 L 128.750000 100.851562 L 129.050781 100.800781 L 129.300781 100.800781 L 129.398438 100.750000 L 129.500000 100.750000 C 129.964844 100.750000 130.464844 100.785156 131.000000 100.851562 C 133.167969 101.148438 135.234375 102.000000 137.199219 103.398438 C 139.132812 104.765625 140.898438 106.382812 142.500000 108.250000 C 144.101562 110.050781 145.535156 111.917969 146.800781 113.851562 C 148.066406 115.750000 149.183594 117.582031 150.148438 119.351562 C 151.648438 122.050781 152.851562 124.382812 153.750000 126.351562 L 165.000000 126.351562 C 165.066406 126.250000 165.132812 126.132812 165.199219 126.000000 C 166.566406 122.734375 168.667969 118.449219 171.500000 113.148438 C 172.933594 110.582031 174.566406 107.898438 176.398438 105.101562 C 178.265625 102.265625 180.367188 99.535156 182.699219 96.898438 C 185.035156 94.199219 187.617188 91.949219 190.449219 90.148438 C 191.148438 89.714844 191.867188 89.351562 192.601562 89.050781 C 193.300781 88.714844 194.015625 88.464844 194.750000 88.300781 C 195.417969 88.101562 196.082031 87.984375 196.750000 87.949219 L 197.050781 87.949219 L 197.398438 87.898438 L 198.000000 87.898438 L 198.398438 87.949219 L 198.949219 88.000000 C 201.816406 88.433594 204.667969 89.699219 207.500000 91.800781 C 210.265625 93.867188 212.800781 96.265625 215.101562 99.000000 C 217.398438 101.667969 219.464844 104.382812 221.300781 107.148438 C 223.167969 109.882812 224.832031 112.535156 226.300781 115.101562 C 228.867188 119.566406 230.851562 123.316406 232.250000 126.351562 L 250.000000 126.351562 C 250.500000 125.417969 251.050781 124.367188 251.648438 123.199219 C 253.148438 120.265625 255.050781 116.800781 257.351562 112.800781 C 259.683594 108.832031 262.433594 104.535156 265.601562 99.898438 C 268.765625 95.265625 272.417969 90.632812 276.550781 86.000000 C 278.617188 83.699219 280.832031 81.500000 283.199219 79.398438 C 284.367188 78.398438 285.566406 77.417969 286.800781 76.449219 C 288.035156 75.550781 289.300781 74.699219 290.601562 73.898438 C 291.867188 73.101562 293.167969 72.398438 294.500000 71.800781 C 295.800781 71.199219 297.101562 70.734375 298.398438 70.398438 C 299.699219 70.035156 300.984375 69.816406 302.250000 69.750000 L 302.750000 69.699219 L 305.101562 69.699219 L 305.500000 69.750000 C 305.800781 69.785156 306.101562 69.800781 306.398438 69.800781 L 306.500000 69.851562 L 306.601562 69.851562 L 306.898438 69.898438 L 307.398438 69.949219 C 307.765625 69.984375 308.117188 70.035156 308.449219 70.101562 C 309.148438 70.265625 309.851562 70.433594 310.550781 70.601562 L 311.601562 70.898438 L 312.648438 71.250000 C 313.351562 71.484375 314.050781 71.750000 314.750000 72.050781 C 317.550781 73.250000 320.285156 74.816406 322.949219 76.750000 C 328.316406 80.683594 333.250000 85.417969 337.750000 90.949219 C 342.214844 96.417969 346.265625 102.101562 349.898438 108.000000 C 350.632812 109.167969 351.332031 110.332031 352.000000 111.500000 C 353.667969 114.101562 357.398438 121.183594 363.199219 132.750000 C 369.000000 144.316406 374.601562 157.964844 380.000000 173.699219 L 407.250000 173.699219 "/>
    <path style="stroke:none;fill-rule:evenodd;fill:rgb(6.274510%,44.705882%,72.941176%);fill-opacity:1" d="M 371.601562 93.601562 C 375.500000 99.199219 379.300781 105.183594 383.000000 111.550781 C 383.035156 111.648438 383.082031 111.734375 383.148438 111.800781 L 383.449219 112.300781 C 384.316406 113.433594 387.800781 119.832031 393.898438 131.500000 C 400.000000 143.132812 405.964844 157.199219 411.800781 173.699219 L 434.601562 173.699219 C 428.500000 157.300781 422.117188 143.199219 415.449219 131.398438 C 408.816406 119.632812 405.214844 113.484375 404.648438 112.949219 L 404.648438 112.898438 C 401.285156 107.398438 397.515625 101.765625 393.351562 96.000000 C 388.785156 89.667969 383.582031 83.433594 377.750000 77.300781 C 371.984375 71.101562 365.167969 65.500000 357.300781 60.500000 C 353.367188 58.035156 349.066406 55.984375 344.398438 54.351562 C 339.734375 52.683594 334.816406 51.699219 329.648438 51.398438 L 327.550781 51.351562 L 326.500000 51.351562 L 325.800781 51.398438 C 329.199219 52.800781 332.667969 54.632812 336.199219 56.898438 C 343.035156 61.300781 349.785156 67.132812 356.449219 74.398438 C 361.515625 79.933594 366.566406 86.332031 371.601562 93.601562 "/>
  </g>
  <g id="surface4">
    <text style="fill:rgb(0,42,70)" font-family="Droid Serif" font-size="29" transform="matrix(1,0,0,1,2.450000000000003,165.55)" xml:space="preserve"><![CDATA[Oregon Chinese Community]]></text>
    <text style="fill:rgb(174,57,110)" font-family="Helvetica" font-size="40" transform="matrix(1,0,0,1,129,210)" xml:space="preserve"><![CDATA[俄勒岡州華人社區]]></text>
  </g>
</svg>