<?xml version="1.0" encoding="UTF-8" standalone="no"?>
<svg
   xmlns:dc="http://purl.org/dc/elements/1.1/"
   xmlns:cc="http://creativecommons.org/ns#"
   xmlns:rdf="http://www.w3.org/1999/02/22-rdf-syntax-ns#"
   xmlns:svg="http://www.w3.org/2000/svg"
   xmlns="http://www.w3.org/2000/svg"
   viewBox="0 0 297.59778 296.82898"
   height="296.82898"
   width="297.59778"
   xml:space="preserve"
   id="svg2"
   version="1.1"><metadata
     id="metadata8"><rdf:RDF><cc:Work
         rdf:about=""><dc:format>image/svg+xml</dc:format><dc:type
           rdf:resource="http://purl.org/dc/dcmitype/StillImage" /><dc:title></dc:title></cc:Work></rdf:RDF></metadata><defs
     id="defs6"><clipPath
       id="clipPath48"
       clipPathUnits="userSpaceOnUse"><path
         id="path46"
         d="M 304.6,406.812 H 499.626 V 523.143 H 304.6 Z" /></clipPath><clipPath
       id="clipPath60"
       clipPathUnits="userSpaceOnUse"><path
         id="path58"
         d="M 317.158,414.626 H 488.639 V 523.143 H 317.158 Z" /></clipPath><clipPath
       id="clipPath72"
       clipPathUnits="userSpaceOnUse"><path
         id="path70"
         d="M 304.6,406.812 H 499.626 V 523.143 H 304.6 Z" /></clipPath><clipPath
       id="clipPath84"
       clipPathUnits="userSpaceOnUse"><path
         id="path82"
         d="M 317.158,414.626 H 488.639 V 523.143 H 317.158 Z" /></clipPath><clipPath
       id="clipPath96"
       clipPathUnits="userSpaceOnUse"><path
         id="path94"
         d="M 304.6,406.812 H 499.626 V 523.143 H 304.6 Z" /></clipPath><clipPath
       id="clipPath108"
       clipPathUnits="userSpaceOnUse"><path
         id="path106"
         d="M 317.158,414.626 H 488.639 V 523.143 H 317.158 Z" /></clipPath><clipPath
       id="clipPath120"
       clipPathUnits="userSpaceOnUse"><path
         id="path118"
         d="M 304.6,406.812 H 499.626 V 523.143 H 304.6 Z" /></clipPath><clipPath
       id="clipPath360"
       clipPathUnits="userSpaceOnUse"><path
         id="path358"
         d="M 317.158,414.626 H 488.639 V 523.143 H 317.158 Z" /></clipPath><clipPath
       id="clipPath376"
       clipPathUnits="userSpaceOnUse"><path
         id="path374"
         d="M 304.6,406.812 H 499.626 V 523.143 H 304.6 Z" /></clipPath><clipPath
       id="clipPath428"
       clipPathUnits="userSpaceOnUse"><path
         id="path426"
         d="M 317.158,414.626 H 488.639 V 523.143 H 317.158 Z" /></clipPath><clipPath
       id="clipPath440"
       clipPathUnits="userSpaceOnUse"><path
         id="path438"
         d="M 304.6,406.812 H 499.626 V 523.143 H 304.6 Z" /></clipPath><clipPath
       id="clipPath452"
       clipPathUnits="userSpaceOnUse"><path
         id="path450"
         d="M 317.158,414.626 H 488.639 V 523.143 H 317.158 Z" /></clipPath><clipPath
       id="clipPath464"
       clipPathUnits="userSpaceOnUse"><path
         id="path462"
         d="M 304.6,406.812 H 499.626 V 523.143 H 304.6 Z" /></clipPath><clipPath
       id="clipPath476"
       clipPathUnits="userSpaceOnUse"><path
         id="path474"
         d="M 317.158,414.626 H 488.639 V 523.143 H 317.158 Z" /></clipPath><clipPath
       id="clipPath488"
       clipPathUnits="userSpaceOnUse"><path
         id="path486"
         d="M 304.6,406.812 H 499.626 V 523.143 H 304.6 Z" /></clipPath><clipPath
       id="clipPath500"
       clipPathUnits="userSpaceOnUse"><path
         id="path498"
         d="M 317.158,414.626 H 488.639 V 523.143 H 317.158 Z" /></clipPath><clipPath
       id="clipPath512"
       clipPathUnits="userSpaceOnUse"><path
         id="path510"
         d="M 304.6,406.812 H 499.626 V 523.143 H 304.6 Z" /></clipPath><clipPath
       id="clipPath556"
       clipPathUnits="userSpaceOnUse"><path
         id="path554"
         d="M 317.158,414.626 H 488.639 V 523.143 H 317.158 Z" /></clipPath><clipPath
       id="clipPath568"
       clipPathUnits="userSpaceOnUse"><path
         id="path566"
         d="M 304.6,406.812 H 499.626 V 523.143 H 304.6 Z" /></clipPath><clipPath
       id="clipPath580"
       clipPathUnits="userSpaceOnUse"><path
         id="path578"
         d="M 317.158,414.626 H 488.639 V 523.143 H 317.158 Z" /></clipPath><clipPath
       id="clipPath592"
       clipPathUnits="userSpaceOnUse"><path
         id="path590"
         d="M 304.6,406.812 H 499.626 V 523.143 H 304.6 Z" /></clipPath><clipPath
       id="clipPath768"
       clipPathUnits="userSpaceOnUse"><path
         id="path766"
         d="m 41.5,384.142 11.719,-43.736 57.515,15.411 -11.719,43.736 z" /></clipPath><clipPath
       id="clipPath866"
       clipPathUnits="userSpaceOnUse"><path
         id="path864"
         d="M 57.465,419.108 H 277.52 V 583.56 H 57.465 Z" /></clipPath><clipPath
       id="clipPath892"
       clipPathUnits="userSpaceOnUse"><path
         id="path890"
         d="m 264.54,160.752 h 85.54 v 70.538 h -85.54 z" /></clipPath><clipPath
       id="clipPath1002"
       clipPathUnits="userSpaceOnUse"><path
         id="path1000"
         d="m 394.309,608.161 h 22.341 v 54.07 h -22.341 z" /></clipPath><clipPath
       id="clipPath1018"
       clipPathUnits="userSpaceOnUse"><path
         id="path1016"
         d="m 369.791,608.105 h 21.129 v 54.127 h -21.129 z" /></clipPath><clipPath
       id="clipPath1034"
       clipPathUnits="userSpaceOnUse"><path
         id="path1032"
         d="m 344.433,608.105 h 21.129 v 54.127 h -21.129 z" /></clipPath><clipPath
       id="clipPath1050"
       clipPathUnits="userSpaceOnUse"><path
         id="path1048"
         d="m 318.914,608.105 h 21.129 v 54.127 h -21.129 z" /></clipPath><clipPath
       id="clipPath1128"
       clipPathUnits="userSpaceOnUse"><path
         id="path1126"
         d="m 53.288,656.067 6.823,-48.548 52.281,7.348 -6.823,48.547 z" /></clipPath><clipPath
       id="clipPath1262"
       clipPathUnits="userSpaceOnUse"><path
         id="path1260"
         d="m 438,681.972 h 129.574 v 65.507 H 438 Z" /></clipPath><clipPath
       id="clipPath1518"
       clipPathUnits="userSpaceOnUse"><path
         id="path1516"
         d="m 508.975,687.1 h 58.599 v 50.746 h -58.599 z" /></clipPath><clipPath
       id="clipPath1534"
       clipPathUnits="userSpaceOnUse"><path
         id="path1532"
         d="m 438,681.972 h 129.574 v 65.507 H 438 Z" /></clipPath><clipPath
       id="clipPath1626"
       clipPathUnits="userSpaceOnUse"><path
         id="path1624"
         d="M 0,0 H 612 V 792 H 0 Z" /></clipPath><clipPath
       id="clipPath1650"
       clipPathUnits="userSpaceOnUse"><path
         id="path1648"
         d="M 447.979,246.818 H 573.746 V 326.46 H 447.979 Z" /></clipPath></defs><g
     transform="matrix(1.3333333,0,0,-1.3333333,-199.18465,936.532)"
     id="g10"><path
       d="m 322.12272,527.99073 c -15.71426,-15.48317 -36.75044,-24.53655 -60.55633,-24.53655 -37.5015,0 -69.46358,23.71753 -81.70466,56.97101 0,0 -2.31432,7.45952 2.30412,11.03465 9.36943,7.25221 26.08623,13.0737 34.55167,13.62084 8.46545,0.55394 18.99714,-1.30499 31.87033,-13.2776 12.86979,-11.97941 17.81108,-21.19591 24.35983,-22.715 5.21316,-1.20983 8.83927,4.04072 19.33697,5.76371 6.90558,1.13167 15.87399,1.706 26.29352,-12.64889 6.34144,-8.74072 3.54455,-14.21217 3.54455,-14.21217"
       style="fill:#ac8961;fill-opacity:1;fill-rule:nonzero;stroke:none;stroke-width:3.39841366"
       id="path1266" /><path
       d="m 339.6949,552.71419 c 0.0612,0.12574 0.12574,0.39761 0.18691,0.52336"
       style="fill:#cfa86c;fill-opacity:1;fill-rule:nonzero;stroke:none;stroke-width:3.39841366"
       id="path1270" /><path
       d="m 339.88113,553.23585 c -15.41181,12.26148 -23.06503,19.38795 -48.26767,13.281 -11.26234,-2.73232 -28.15925,2.45026 -39.69687,14.03885 -14.68454,14.74232 -25.19244,16.99206 -28.85593,17.73632 -4.03391,0.82241 -14.60298,1.56327 -24.8492,0.30925 -0.23449,-0.0306 -0.64909,1.55308 2.93963,2.95662 4.11548,1.60745 12.55034,4.16646 22.89851,1.52929 9.03298,-2.30073 25.41674,-13.43733 29.38948,-16.63863 5.41707,-4.37716 11.44246,-7.97608 19.40154,-11.18758 11.40168,-4.58446 22.02512,-1.30839 22.02512,-1.30839 29.34191,9.91317 49.29059,-10.2768 49.56587,-9.30826 0.95835,3.37463 1.6992,6.73566 2.51142,10.31419 -11.22156,7.7144 -27.03438,11.83328 -40.01632,7.00413 -11.06183,-4.11548 -19.28939,-5.61078 -29.07343,-2.80029 -15.16372,4.35337 -30.6231,17.69214 -35.78529,20.39728 -3.57853,1.87592 -12.20031,8.89025 -26.53481,8.78829 -22.77957,-0.15632 -41.27374,-15.90457 -41.27374,-15.90457 0.0374,-0.56754 0.0578,-1.14867 0.0578,-1.76378 0,-4.5029 0.33984,-8.92083 0.99913,-13.23682 22.89511,17.60718 38.3409,14.09662 42.51415,13.72959 10.16806,-0.89038 19.85693,-6.07976 27.66649,-12.95475 3.55134,-3.12314 17.79069,-16.76438 25.10748,-20.86286 4.84953,-2.71534 12.31245,-1.02972 18.22909,1.10108 3.65669,1.31859 10.75938,2.04585 10.75938,2.04585 15.95555,1.83174 31.78536,-21.51876 31.78536,-21.51876 3.15373,4.26841 5.97441,8.91064 8.31592,13.72959"
       style="fill:#ac8961;fill-opacity:1;fill-rule:nonzero;stroke:none;stroke-width:3.39841366"
       id="path1274" /><path
       d="m 280.29403,565.72332 c 7.90471,-1.20644 24.01999,3.98974 32.69274,2.41287 15.04817,-2.73912 26.5586,-15.65649 26.87126,-15.13653 0.87339,1.45792 4.50969,10.80695 4.51989,11.5716 0,0.16992 -21.72606,18.64709 -46.78257,10.34817 -24.59432,-8.146 -43.16325,12.22069 -52.93369,17.91983 -9.77383,5.70254 -23.07522,16.43813 -43.32977,8.95822 -3.58872,-1.32538 -3.62271,-3.27947 -3.12994,-3.24548 6.96335,0.51655 21.80082,1.34577 29.42347,-1.60745 12.58772,-4.86313 18.14413,-11.44926 23.05823,-15.40841 4.60825,-3.72126 10.7186,-11.92503 29.61038,-15.81282"
       style="fill:#0499db;fill-opacity:1;fill-rule:nonzero;stroke:none;stroke-width:3.39841366"
       id="path1278" /><path
       d="m 286.62867,587.53128 c 0,0 -6.47398,-2.42987 -14.87146,1.10788 -6.46378,2.72553 -11.93183,7.74839 -14.91224,11.67016 -5.85886,7.7076 -11.70753,12.33624 -11.70753,12.33624 4.22083,7.0619 12.38722,12.22749 21.2095,12.22749 13.35236,0 24.17631,-10.82395 24.17631,-24.17632 0,-4.85973 -1.43073,-9.37962 -3.89458,-13.16545 m -25.30459,90.43518 c -43.14286,0 -78.95194,-31.38774 -85.84393,-72.57652 0,0 3.29647,-3.81642 13.74999,-0.55054 10.85453,3.38822 28.15245,10.88172 40.40713,10.21903 9.32525,-0.81902 14.89865,-5.77051 24.29866,-16.4925 8.64896,-9.8588 14.48404,-12.58773 20.31572,-14.32771 6.66769,-1.98807 19.60545,0.26507 22.74558,0.61511 6.90218,0.76464 26.32751,7.5003 33.00199,8.1358 4.0849,0.39422 10.67782,-0.98554 14.02526,-1.2812 1.52249,-0.13254 3.98973,2.03565 3.98973,2.03565 -1.24042,46.98307 -39.4046,84.22288 -86.69013,84.22288"
       style="fill:#0499db;fill-opacity:1;fill-rule:nonzero;stroke:none;stroke-width:3.39841366"
       id="path1282" /><path
       d="m 157.88113,610.45562 7.0721,-4.25481 c 1.35597,-0.82922 2.79349,-1.53609 4.24462,-2.16479 -0.2141,-0.55734 -0.34324,-0.93797 -0.45199,-1.5123 -0.11555,-0.60152 -0.18352,-1.24042 -0.19371,-1.86233 -2.65756,-0.007 -13.09069,-0.853 -19.16366,-1.85893 0.29227,0.81222 0.50297,1.77397 0.66949,2.63717 0.15293,0.80882 0.24469,1.7128 0.30246,2.43326 2.82408,0.0306 4.29899,0.0986 8.66596,0.40102 2.58279,0.18351 3.38821,0.27527 4.32957,0.39081 l -4.85633,2.93623 c -2.20897,1.34238 -4.46212,2.58959 -6.73226,3.61931 0.23789,0.68648 0.39762,1.22343 0.48598,1.69241 0.0918,0.47238 0.12914,0.95156 0.12914,1.52249 0.73745,0.0204 1.30839,0.0476 2.60658,0.17672 2.5726,0.26847 9.39322,1.20984 10.61664,1.38315 l -7.18424,3.6533 c -3.18771,1.61085 -3.51736,1.72979 -4.64903,2.05264 0.15972,0.54035 0.37382,1.09429 0.47917,1.64483 0.10536,0.54715 0.11555,1.03312 0.10536,1.41374 0.6253,-0.418 0.74765,-0.49617 3.87759,-2.25994 l 8.54021,-4.80536 c 0.95155,-0.53355 3.54794,-1.84194 4.59465,-2.31432 -0.18351,-0.53355 -0.35343,-0.98894 -0.45878,-1.53948 -0.10875,-0.57433 -0.16652,-1.15886 -0.16992,-1.75358 -2.12401,-0.19031 -3.79943,-0.30246 -6.05598,-0.62871 z"
       style="fill:#231f20;fill-opacity:1;fill-rule:nonzero;stroke:none;stroke-width:3.39841366"
       id="path1286" /><path
       d="m 162.74324,629.91969 4.52669,-4.31599 c 0.32285,0.6457 0.62191,1.3016 0.89378,1.96429 0.28547,0.68988 0.51996,1.39675 0.78163,2.09682 z m -5.19617,2.05604 c 0.27187,0.38062 0.50296,0.80203 0.67628,1.22003 0.15973,0.39422 0.28547,0.83261 0.34664,1.26761 7.74498,-0.48937 15.80262,-0.50297 20.02345,-0.45879 -0.43839,-0.71366 -0.78503,-1.4885 -1.10108,-2.25315 -0.33645,-0.81222 -0.76125,-1.84533 -0.92777,-2.66775 -2.85467,0.34324 -4.64563,0.39082 -5.49864,0.4248 -0.36702,-0.82581 -0.76124,-1.64143 -1.12827,-2.52842 -0.37382,-0.91077 -0.74765,-1.87932 -1.09429,-2.85806 1.03312,-0.91758 2.58959,-2.30753 4.23782,-3.47658 -0.26507,-0.4384 -0.50296,-0.80203 -0.70687,-1.2948 -0.0985,-0.24468 -0.34324,-0.83601 -0.418,-1.43753 -2.55561,2.81049 -10.26321,10.36856 -14.40927,14.06264"
       style="fill:#231f20;fill-opacity:1;fill-rule:nonzero;stroke:none;stroke-width:3.39841366"
       id="path1290" /><path
       d="m 172.0498,650.19531 c -1.98807,0.62871 -3.31005,-0.40101 -4.03392,-1.58026 -0.27867,-0.45199 -1.52928,-2.58959 0.39762,-3.77564 1.42733,-0.87679 2.46385,-0.10875 5.86566,2.42307 0.67289,0.48937 1.77737,1.0637 3.08236,1.10448 1.09089,0.0476 2.09682,-0.35343 2.98041,-0.89718 2.94642,-1.81135 3.87079,-5.28793 1.45792,-9.2097 -1.40694,-2.29053 -2.91924,-3.17072 -3.77224,-3.6465 -0.74085,0.82922 -2.04245,1.91331 -2.83768,2.40268 l 0.35004,0.56414 c 2.26334,-0.89039 3.93536,0.45539 4.77137,1.81475 1.17246,1.90311 0.56414,3.40181 -0.59132,4.11548 -1.27101,0.78164 -2.12401,0.2107 -5.02625,-1.81815 -2.17499,-1.5021 -4.21744,-2.18518 -6.71187,-0.6491 -3.12654,1.9235 -3.61251,5.09762 -1.5089,8.51983 1.32538,2.15459 2.64737,2.93283 3.67029,3.52415 0.50636,-0.90398 1.67542,-1.99827 2.21577,-2.39248 z"
       style="fill:#231f20;fill-opacity:1;fill-rule:nonzero;stroke:none;stroke-width:3.39841366"
       id="path1294" /><path
       d="m 175.48526,655.62325 c -1.11468,0.98894 -2.45705,2.00506 -3.22509,2.5794 0.60831,0.52675 1.19624,1.10788 1.78076,1.76717 0.72387,0.81222 1.26082,1.58026 1.48851,1.91671 1.72639,-1.78417 2.96002,-2.87846 5.40688,-5.05344 0.97874,1.01952 1.75698,1.85893 2.5522,2.75271 0.76125,0.8564 1.55648,1.75018 2.50124,2.93963 l -2.54542,2.26334 c -0.81561,0.72386 -2.28033,1.87932 -3.12654,2.49104 0.41121,0.38062 1.25062,1.16565 1.79776,1.78417 0.60152,0.67628 1.28121,1.60405 1.5055,1.93709 1.55308,-1.69921 5.5734,-5.26754 7.54448,-7.01772 2.40608,-2.1376 4.45872,-3.95915 6.28707,-5.22676 -0.62871,-0.54715 -1.21664,-1.12828 -1.74679,-1.723 -0.58453,-0.65929 -1.12487,-1.34917 -1.61085,-2.05944 -0.4282,0.52336 -1.09768,1.33218 -2.55221,2.62018 l -3.86059,3.429 c -0.79863,-0.81902 -1.68562,-1.77737 -2.63717,-2.85127 -0.92097,-1.03652 -1.81815,-2.09002 -2.41627,-2.84107 l 4.20043,-3.72806 c 0.83601,-0.74086 1.92351,-1.60066 2.49444,-2.00167 -0.35683,-0.32285 -1.09089,-0.98894 -1.72639,-1.706 -0.39082,-0.435 -1.09429,-1.30839 -1.54288,-1.97448 -0.90738,0.98214 -1.75359,1.87592 -3.4256,3.35763 z"
       style="fill:#231f20;fill-opacity:1;fill-rule:nonzero;stroke:none;stroke-width:3.39841366"
       id="path1298" /><path
       d="m 203.18437,663.24623 c -0.70007,-0.45199 -1.2812,-0.87339 -1.95409,-1.44093 -0.6287,-0.53355 -1.24722,-1.12147 -1.80795,-1.73659 -1.30839,1.96089 -5.17239,6.53515 -5.99481,7.5139 -1.78756,2.11381 -4.04071,4.74078 -5.90304,6.61331 0.61851,0.38402 1.2812,0.87679 2.01526,1.4953 0.83261,0.70347 1.4953,1.40355 1.74678,1.68222 1.81476,-2.43667 4.05771,-5.21317 6.0152,-7.53089 1.63123,-1.9337 4.18684,-4.96168 5.88265,-6.59632"
       style="fill:#231f20;fill-opacity:1;fill-rule:nonzero;stroke:none;stroke-width:3.39841366"
       id="path1302" /><path
       d="m 210.67447,683.06238 c -0.26847,0.4282 -2.68815,4.0645 -3.58533,5.10442 0.41801,0.13593 0.98894,0.4282 1.34917,0.65249 0.40781,0.25149 0.78504,0.55055 1.13507,0.89379 0.89379,-2.14101 4.75778,-8.54362 6.31765,-11.05165 1.01273,-1.62784 2.03905,-3.27607 3.2183,-4.76797 -0.51656,-0.22769 -0.96515,-0.41461 -1.41714,-0.69667 -0.47238,-0.29567 -0.87679,-0.60492 -1.22682,-0.95156 -1.33898,0.54375 -1.80796,0.69328 -5.9982,2.03565 l -9.83501,2.90564 3.51736,-5.64816 c 0.6321,-1.01952 2.71193,-3.95575 3.39161,-4.84954 -0.44859,-0.18351 -0.89718,-0.37042 -1.30499,-0.62191 -0.44859,-0.28206 -0.70347,-0.53355 -1.09089,-0.86659 -2.24635,4.36696 -2.86486,5.36269 -5.18938,9.09075 -2.52842,4.06451 -3.23189,5.19618 -4.39075,6.70168 0.56074,0.25488 1.10109,0.49616 1.59726,0.80542 0.45538,0.28207 0.86319,0.63211 1.25061,0.96515 4.01353,-1.51229 12.26148,-3.93196 15.45259,-4.82915 z"
       style="fill:#231f20;fill-opacity:1;fill-rule:nonzero;stroke:none;stroke-width:3.39841366"
       id="path1306" /><path
       d="m 231.12408,693.53799 c -0.61171,0.51316 -2.5726,2.1478 -5.62098,1.02972 -3.35083,-1.22683 -5.20976,-4.65923 -3.43239,-9.50536 1.56327,-4.27521 4.7102,-6.44 8.25814,-5.1384 0.79863,0.29226 1.55308,0.71026 2.24635,1.22003 -0.24808,0.75784 -0.48937,1.4919 -0.76464,2.24295 -0.48597,1.32538 -1.0705,2.61338 -1.72979,3.87079 0.8462,0.16992 1.65163,0.4384 2.47744,0.74086 0.75105,0.27187 1.31519,0.50976 2.12061,0.94475 0.0816,-0.53694 0.435,-1.88272 0.88359,-3.10615 0.24468,-0.67288 0.92437,-2.52162 1.64823,-3.95915 -2.17838,-1.47831 -4.39755,-3.0008 -6.8478,-3.89798 -5.67536,-2.07983 -10.88172,0.068 -12.79503,5.28793 -1.66862,4.55048 -0.36363,10.27341 7.03471,12.98194 1.99827,0.73406 4.46892,1.18605 6.70507,0.81222 -0.0986,-1.50889 0.0476,-2.53181 0.18692,-3.30325 z"
       style="fill:#231f20;fill-opacity:1;fill-rule:nonzero;stroke:none;stroke-width:3.39841366"
       id="path1310" /><path
       d="m 239.78664,697.65755 c -1.25741,-0.2243 -2.92943,-0.54714 -4.83254,-1.10109 0.0272,0.46559 -0.0272,0.91418 -0.10535,1.35937 -0.0714,0.39422 -0.19371,0.77824 -0.33645,1.13167 1.36616,0.0782 4.02033,0.49617 7.11288,1.04671 3.24889,0.57433 5.3627,1.00253 7.03812,1.46472 0.003,-0.48597 0.0238,-0.89039 0.0918,-1.2812 0.0748,-0.42141 0.24809,-0.93117 0.35004,-1.20984 -1.57686,-0.0918 -3.26588,-0.33644 -4.73399,-0.59812 0.15293,-1.16226 0.46898,-2.94303 0.82242,-4.9345 0.27527,-1.54627 0.82921,-4.82574 1.13846,-6.55554 0.27867,-1.57346 0.58453,-3.00419 0.97195,-4.42133 -0.77824,-0.0306 -1.88612,-0.17332 -2.62018,-0.30586 -0.73405,-0.12914 -1.61424,-0.36703 -2.30752,-0.57093 0.0442,1.2778 -0.53695,4.55387 -0.79523,6.02199 -0.58792,3.30325 -1.20983,6.81382 -1.79436,9.95395"
       style="fill:#231f20;fill-opacity:1;fill-rule:nonzero;stroke:none;stroke-width:3.39841366"
       id="path1314" /><path
       d="m 261.29078,700.5095 c -4.04751,0 -5.59039,-3.80622 -5.59039,-7.98627 0,-5.29473 2.60658,-7.42214 5.37629,-7.42214 3.38142,0 5.61758,2.92604 5.61758,8.01006 0,4.39075 -1.94389,7.39835 -5.40348,7.39835 m -0.2141,-17.30132 c -5.93703,0 -10.21903,3.19451 -10.21903,9.45098 0,5.61418 3.67029,9.73986 10.37876,9.73986 5.72292,0 10.30059,-3.08576 10.30059,-9.23689 0,-6.83761 -5.11122,-9.95395 -10.46032,-9.95395"
       style="fill:#231f20;fill-opacity:1;fill-rule:nonzero;stroke:none;stroke-width:3.39841366"
       id="path1318" /><path
       d="m 289.535,692.09843 c 0.10875,0.49277 0.91417,4.78497 0.99913,6.15793 0.39422,-0.19711 1.00593,-0.38403 1.42054,-0.47578 0.46898,-0.10535 0.94816,-0.15293 1.44093,-0.15293 -0.8598,-2.1546 -2.5658,-9.4374 -3.20131,-12.32265 -0.41121,-1.87252 -0.82581,-3.76884 -1.02632,-5.66176 -0.52675,0.19711 -0.97874,0.38063 -1.4987,0.49277 -0.54714,0.12235 -1.05011,0.17672 -1.54288,0.17672 -0.57773,1.32538 -0.81222,1.75698 -2.87506,5.64477 l -5.00586,8.94802 -1.43073,-6.49777 c -0.25488,-1.16905 -0.81902,-4.72379 -0.95496,-5.83847 -0.45199,0.18011 -0.90397,0.36023 -1.36956,0.46558 -0.51995,0.11215 -0.87679,0.10875 -1.38655,0.13934 1.44093,4.6966 1.69241,5.84187 2.63377,10.13067 1.02972,4.67961 1.31519,5.97781 1.53608,7.86393 0.58453,-0.20731 1.13847,-0.41461 1.70941,-0.54035 0.51995,-0.11215 1.0569,-0.14953 1.56666,-0.18012 1.81816,-3.88438 6.03219,-11.37789 7.68722,-14.24955 z"
       style="fill:#231f20;fill-opacity:1;fill-rule:nonzero;stroke:none;stroke-width:3.39841366"
       id="path1322" /><path
       d="m 316.86028,682.65356 c 0.16652,1.7128 -1.09429,3.50376 -2.93963,4.45532 -3.61931,1.86913 -6.98034,-0.34664 -8.91064,-4.08149 -2.05264,-3.97275 -1.52249,-7.81296 2.1444,-9.70927 1.86913,-0.96515 3.59552,-0.8666 5.39668,-0.45199 l 0.28207,-0.44179 c -0.49617,-0.435 -1.0705,-0.97535 -1.84874,-1.89292 -1.97448,0.0612 -3.88099,0.65929 -5.60738,1.54968 -5.79429,2.994 -7.15026,8.36689 -4.7204,13.07369 2.5794,4.98887 8.01686,6.70167 13.73979,3.74505 1.96428,-1.01272 3.74165,-2.38228 5.07723,-4.14946 -0.91417,-0.66609 -1.76378,-1.90651 -2.09342,-2.36529 z"
       style="fill:#231f20;fill-opacity:1;fill-rule:nonzero;stroke:none;stroke-width:3.39841366"
       id="path1326" /><path
       d="m 330.15487,676.15749 c -3.15033,2.53861 -6.73905,0.54714 -9.36263,-2.70514 -3.32705,-4.12227 -2.63377,-7.41873 -0.47918,-9.15532 2.63377,-2.12401 6.2123,-1.24722 9.40341,2.70853 2.75612,3.41881 3.12994,6.98034 0.4384,9.15193 m -11.02785,-13.33198 c -4.61845,3.72466 -5.94723,8.90045 -2.02206,13.77038 3.52416,4.37036 8.97181,5.27773 14.19518,1.0671 4.45192,-3.59213 6.07976,-8.86986 2.21916,-13.65483 -4.2922,-5.32531 -10.22583,-4.54028 -14.39228,-1.18265"
       style="fill:#231f20;fill-opacity:1;fill-rule:nonzero;stroke:none;stroke-width:3.39841366"
       id="path1330" /><path
       d="m 339.42575,663.68871 c 1.18265,0.95156 2.81728,2.39928 3.45959,3.08576 0.56753,-0.87679 1.04331,-1.55308 1.4919,-2.11381 0.51656,-0.6423 1.10448,-1.33218 1.65842,-1.80796 -1.82834,-1.12827 -5.52921,-3.99653 -7.31678,-5.43066 -2.3653,-1.89632 -3.29646,-2.98721 -3.70427,-3.92857 -0.53355,-1.24722 -0.2209,-2.87166 0.77824,-4.11888 0.86659,-1.0773 2.64396,-2.31432 5.06703,-1.2914 1.25062,0.52676 2.53182,1.52249 4.38056,3.0042 l 2.49103,1.99827 c 1.723,1.38315 2.22257,1.82155 3.58533,3.18431 0.2175,-0.43839 0.60832,-1.01272 0.94136,-1.42733 0.35004,-0.435 0.79523,-0.8632 1.10788,-1.12488 -2.03565,-1.12147 -6.04578,-4.20383 -8.05764,-5.81808 -2.03565,-1.63464 -4.63203,-3.54454 -8.24795,-2.18518 -1.36616,0.50976 -2.559,1.53269 -3.6431,2.88186 -1.56666,1.95068 -2.79009,4.24122 -2.32451,6.4264 0.50636,2.38568 2.00167,3.58532 2.91584,4.31938 z"
       style="fill:#231f20;fill-opacity:1;fill-rule:nonzero;stroke:none;stroke-width:3.39841366"
       id="path1334" /><path
       d="m 357.5121,633.20664 c 0.44859,0.23109 4.2786,2.33131 5.38988,3.13674 0.0986,-0.4282 0.34324,-1.01953 0.53355,-1.40015 0.2175,-0.4248 0.48598,-0.82921 0.79863,-1.20644 -2.20897,-0.71027 -8.92083,-4.01352 -11.55121,-5.3525 -1.706,-0.87339 -3.43919,-1.75358 -5.02625,-2.80369 -0.18351,0.53355 -0.32965,0.99913 -0.57093,1.47151 -0.25488,0.49957 -0.53016,0.92437 -0.84281,1.3016 0.65589,1.29139 0.84281,1.74678 2.53522,5.80788 l 3.73485,9.55294 -5.92683,-3.02458 c -1.0671,-0.54375 -4.17325,-2.3687 -5.11801,-2.97022 -0.14953,0.46219 -0.29566,0.92777 -0.51316,1.35257 -0.24129,0.47578 -0.46898,0.74765 -0.77144,1.16226 4.54708,1.86913 5.58699,2.39928 9.50196,4.39415 4.26501,2.17838 5.45106,2.7833 7.05171,3.80622 0.2073,-0.58113 0.40101,-1.13847 0.66609,-1.65842 0.24469,-0.47578 0.55734,-0.91418 0.8564,-1.32878 -1.85213,-3.8708 -4.96508,-11.88086 -6.13074,-14.98701 z"
       style="fill:#231f20;fill-opacity:1;fill-rule:nonzero;stroke:none;stroke-width:3.39841366"
       id="path1338" /><path
       d="m 364.82719,624.74969 c -0.37383,1.22343 -0.89378,2.84447 -1.67202,4.66602 0.46218,0.0306 0.90398,0.13594 1.33558,0.26848 0.38062,0.11554 0.74765,0.28206 1.08069,0.46898 0.24469,-1.34577 0.97535,-3.93197 1.89292,-6.93616 0.96175,-3.15713 1.64483,-5.20298 2.30072,-6.81043 -0.47917,-0.0646 -0.88018,-0.12914 -1.26081,-0.24468 -0.40781,-0.12574 -0.89378,-0.35683 -1.15546,-0.49277 -0.28207,1.55647 -0.73066,3.2013 -1.16225,4.62524 -1.13507,-0.28887 -2.86487,-0.81902 -4.80196,-1.41034 -1.5021,-0.45539 -4.68981,-1.40015 -6.37203,-1.91671 -1.52589,-0.46558 -2.91244,-0.94136 -4.2718,-1.4953 -0.12575,0.76804 -0.40102,1.85214 -0.61852,2.5658 -0.21749,0.71367 -0.55734,1.55308 -0.8428,2.21917 1.2744,0.10875 4.45532,1.08069 5.88265,1.51569 3.20471,0.97874 6.61671,2.01866 9.66509,2.97701"
       style="fill:#231f20;fill-opacity:1;fill-rule:nonzero;stroke:none;stroke-width:3.39841366"
       id="path1342" /><path
       d="m 356.47831,601.49638 c -0.94816,-0.12914 -2.08663,-0.44859 -2.94303,-0.67289 -0.003,0.80543 -0.0951,1.86913 -0.18351,2.50124 -0.068,0.52675 -0.26848,1.57346 -0.49617,2.45705 1.74679,-0.003 2.80029,0.14273 4.35677,0.35683 l 3.47997,0.47578 6.54195,4.79176 c 0.82921,0.62531 2.06284,1.60066 3.14353,2.55561 0.0544,-0.98554 0.10875,-1.97448 0.24129,-2.94982 0.12234,-0.89718 0.32625,-1.78077 0.52675,-2.66776 -1.09768,-0.60491 -2.20897,-1.32198 -3.412,-2.1342 -0.59133,-0.40101 -3.18772,-2.23616 -3.73146,-2.5794 1.72979,-0.64909 6.54874,-2.29732 8.1392,-2.53521 -0.007,-0.54035 -0.0136,-1.05011 0.0748,-1.7094 0.0782,-0.58113 0.2311,-1.09769 0.37043,-1.53609 -2.18518,1.25742 -7.73139,3.29306 -10.99047,4.34997 z"
       style="fill:#231f20;fill-opacity:1;fill-rule:nonzero;stroke:none;stroke-width:3.39841366"
       id="path1346" /><path
       d="m 216.04022,508.49777 c -3.54115,1.95409 -6.73226,-0.6321 -8.75092,-4.2922 -2.559,-4.63543 -1.30499,-7.75857 1.11808,-9.09415 2.96002,-1.63464 6.33125,-0.15293 8.7883,4.29559 2.12061,3.84701 1.87253,7.41874 -1.15546,9.09076 m -8.54701,-15.04478 c -5.19617,2.86826 -7.40175,7.73479 -4.38056,13.21304 2.71194,4.9141 7.92171,6.75264 13.79417,3.51056 5.00926,-2.76291 7.52408,-7.67702 4.55387,-13.06351 -3.30326,-5.988 -9.28447,-6.24288 -13.96748,-3.66009"
       style="fill:#231f20;fill-opacity:1;fill-rule:nonzero;stroke:none;stroke-width:3.39841366"
       id="path1350" /><path
       d="m 229.91289,494.82324 c 0.19711,-0.0884 0.45199,-0.16312 0.75785,-0.25488 0.94136,-0.28547 3.56833,-1.0739 4.58446,2.31772 0.87339,2.90224 -0.93797,3.61931 -2.39249,4.0543 -0.33304,0.0986 -0.6389,0.19032 -0.98554,0.23789 z m 4.44512,-2.22596 2.07304,-7.43233 c 0.2175,-0.75785 0.76124,-2.28374 1.14866,-2.84447 l -0.12234,-0.12914 c -0.82921,0.38742 -1.7128,0.68308 -2.60659,0.94815 -1.09428,0.32965 -1.72299,0.46559 -2.72212,0.6525 -0.034,0.25828 -0.15973,1.41034 -0.67289,3.11974 l -1.85214,6.41961 c -0.017,0.034 -0.034,0.068 -0.085,0.0816 -0.0272,0.0102 -0.051,-0.068 -0.0714,-0.14613 -0.72047,-2.39589 -1.11808,-3.80283 -1.63124,-5.70934 -0.2073,-0.76804 -0.435,-1.53268 -0.55734,-2.30412 -0.67968,0.31605 -1.48171,0.61511 -2.22256,0.83261 -0.6593,0.2039 -1.70261,0.4316 -2.3653,0.54714 0.93456,2.27694 1.63124,4.67962 3.17072,9.80443 1.18605,3.94895 1.89632,6.32105 2.1444,7.88432 1.09089,-0.4384 2.09682,-0.79863 2.73232,-0.98894 1.58027,-0.47238 3.23529,-0.80203 4.81556,-1.27781 0.91417,-0.27527 5.553,-1.66862 4.19024,-6.2055 -0.91077,-3.03478 -3.8606,-3.51056 -5.3661,-3.25228"
       style="fill:#231f20;fill-opacity:1;fill-rule:nonzero;stroke:none;stroke-width:3.39841366"
       id="path1354" /><path
       d="m 243.57723,496.42219 c 0.15633,1.18605 0.23449,2.38569 0.2243,3.51396 2.28373,-0.40781 4.45871,-0.80542 6.09335,-1.02632 1.45112,-0.19031 2.83088,-0.32285 4.69661,-0.40781 -0.12914,-0.38742 -0.23449,-0.77484 -0.29227,-1.19624 -0.0578,-0.44859 -0.0917,-0.90058 -0.0442,-1.33898 -1.69921,0.55055 -4.20044,0.91078 -5.94383,1.14187 -0.17672,-0.94136 -0.32625,-1.86233 -0.45199,-2.81049 l -0.36023,-2.69494 c 2.1376,-0.28207 3.8538,-0.50976 5.92343,-0.48937 -0.13593,-0.41121 -0.24468,-0.82921 -0.29906,-1.25062 -0.0578,-0.4214 -0.034,-0.853 -0.034,-1.25741 -1.9235,0.47238 -3.429,0.66949 -5.85547,0.99234 l -0.70007,-5.24716 c -0.051,-0.39761 -0.0748,-0.76804 -0.0952,-1.14526 1.31859,-0.17332 4.11888,-0.51996 5.98801,-0.39082 -0.13934,-0.43839 -0.24809,-0.853 -0.29566,-1.22343 -0.0612,-0.44859 -0.068,-0.90397 -0.051,-1.38655 -1.66862,0.38062 -4.11548,0.75785 -5.93703,1.00253 -1.68561,0.2243 -3.4154,0.34664 -4.90731,0.435 0.40781,1.26421 0.853,3.78243 1.04332,5.23356 z"
       style="fill:#231f20;fill-opacity:1;fill-rule:nonzero;stroke:none;stroke-width:3.39841366"
       id="path1358" /><path
       d="m 272.20818,494.36071 c -0.4248,0.67628 -1.79096,2.83088 -5.03305,2.70514 -3.56494,-0.13934 -6.38902,-2.83768 -6.18511,-7.99647 0.18011,-4.54708 2.50803,-7.57167 6.28706,-7.42214 0.84961,0.034 1.69581,0.20051 2.50803,0.47238 -0.003,0.79863 -0.007,1.57347 -0.0374,2.3687 -0.0578,1.41034 -0.2175,2.81388 -0.45879,4.21743 0.8564,-0.10195 1.70601,-0.0918 2.5862,-0.0578 0.79522,0.0306 1.40694,0.0816 2.30412,0.25148 -0.085,-0.53695 -0.16312,-1.9235 -0.10875,-3.22849 0.0272,-0.71707 0.10535,-2.68475 0.35344,-4.27521 -2.52842,-0.73745 -5.10782,-1.5055 -7.7144,-1.60745 -6.03559,-0.23789 -10.33458,3.40181 -10.55548,8.96162 -0.19031,4.83594 2.80709,9.88259 10.67782,10.19184 2.12741,0.085 4.61844,-0.24129 6.6303,-1.2812 -0.55734,-1.40694 -0.73065,-2.42647 -0.83261,-3.2047 z"
       style="fill:#231f20;fill-opacity:1;fill-rule:nonzero;stroke:none;stroke-width:3.39841366"
       id="path1362" /><path
       d="m 286.0037,500.24439 c -3.90478,-1.06031 -4.39075,-5.1452 -3.29646,-9.17232 1.39335,-5.11121 4.47231,-6.48077 7.14346,-5.75351 3.25908,0.89038 4.64564,4.30239 3.31006,9.2063 -1.15206,4.23442 -3.81982,6.62691 -7.15706,5.71953 m 4.33977,-16.74738 c -5.72632,-1.56327 -10.6982,0.39421 -12.34303,6.4298 -1.47492,5.42047 0.98554,10.36176 7.45612,12.12554 5.52242,1.50209 10.74918,-0.27188 12.36342,-6.20211 1.79776,-6.60312 -2.31092,-10.94629 -7.47651,-12.35323"
       style="fill:#231f20;fill-opacity:1;fill-rule:nonzero;stroke:none;stroke-width:3.39841366"
       id="path1366" /><path
       d="m 312.70096,506.53961 c -0.23789,0.44519 -2.41287,4.23102 -3.24209,5.32871 0.42481,0.10535 1.01273,0.36023 1.38995,0.56074 0.42141,0.2243 0.81902,0.49957 1.19285,0.81902 0.75105,-2.19538 4.18344,-8.83928 5.57679,-11.44586 0.90058,-1.68901 1.81816,-3.40181 2.89885,-4.96848 -0.53355,-0.19371 -0.99234,-0.34664 -1.46132,-0.59812 -0.49277,-0.26508 -0.91417,-0.55054 -1.288,-0.86999 -1.30159,0.6321 -1.76037,0.81222 -5.85206,2.42306 l -9.62431,3.54795 3.13673,-5.86566 c 0.56754,-1.05691 2.45026,-4.12568 3.06877,-5.06364 -0.45878,-0.15293 -0.91757,-0.30925 -1.34237,-0.53695 -0.46898,-0.24808 -0.73746,-0.48257 -1.14527,-0.79183 -1.95748,4.5063 -2.50803,5.53942 -4.58106,9.41361 -2.25654,4.22422 -2.88525,5.39668 -3.93876,6.97694 0.57773,0.2175 1.13167,0.4214 1.64483,0.70007 0.47238,0.25149 0.90398,0.57094 1.31179,0.88019 3.90478,-1.77397 11.97601,-4.73059 15.10255,-5.83847 z"
       style="fill:#231f20;fill-opacity:1;fill-rule:nonzero;stroke:none;stroke-width:3.39841366"
       id="path1370" /></g></svg>